<svg width="1997" height="1509" xmlns="http://www.w3.org/2000/svg" xmlns:xlink="http://www.w3.org/1999/xlink" overflow="hidden"><defs><clipPath id="clip0"><rect x="525" y="357" width="1997" height="1509"/></clipPath></defs><g clip-path="url(#clip0)" transform="translate(-525 -357)"><path d="M1785.66 1164.26 2471.42 1409.89 2469.11 1416.36 1783.34 1170.74ZM2470.59 1398.64 2491.84 1420.86 2461.31 1424.53Z"/><text font-family="Calibri,Calibri_MSFontService,sans-serif" font-weight="400" font-size="183" transform="matrix(1 0 0 1 2123.31 1267)">r</text><path d="M1584 682.597 1612.19 666.731 1630.75 659.143 1665.81 646.037 1705 635 1722.88 664.662 1739.38 695.704 1760 739.852 1720.12 750.199 1679.56 764.685 1640.38 784 1623.19 748.819 1601.19 711.569 1584 682.597Z" fill="#4472C4" fill-rule="evenodd"/><path d="M1462 1538.72 1433.81 1554.48 1415.25 1562.02 1380.19 1575.04 1341 1586 1323.12 1556.54 1306.62 1525.7 1286 1481.85 1325.88 1471.57 1366.44 1457.19 1405.62 1438 1422.81 1472.94 1444.81 1509.94 1462 1538.72Z" fill="#4472C4" fill-rule="evenodd"/><path d="M1234.5 1238C1234.5 892.546 1522.16 612.5 1877 612.5 2231.84 612.5 2519.5 892.546 2519.5 1238 2519.5 1583.45 2231.84 1863.5 1877 1863.5 1522.16 1863.5 1234.5 1583.45 1234.5 1238Z" stroke="#FF0000" stroke-width="4.58333" stroke-miterlimit="8" stroke-dasharray="18.3333 13.75" fill="none" fill-rule="evenodd"/><path d="M527.5 985C527.5 639.546 814.933 359.5 1169.5 359.5 1524.07 359.5 1811.5 639.546 1811.5 985 1811.5 1330.45 1524.07 1610.5 1169.5 1610.5 814.933 1610.5 527.5 1330.45 527.5 985Z" stroke="#000000" stroke-width="4.58333" stroke-miterlimit="8" stroke-dasharray="18.3333 13.75" fill="none" fill-rule="evenodd"/><path d="M657.5 984.5C657.5 701.73 886.73 472.5 1169.5 472.5 1452.27 472.5 1681.5 701.73 1681.5 984.5 1681.5 1267.27 1452.27 1496.5 1169.5 1496.5 886.73 1496.5 657.5 1267.27 657.5 984.5Z" stroke="#000000" stroke-width="4.58333" stroke-miterlimit="8" stroke-dasharray="18.3333 13.75" fill="none" fill-rule="evenodd"/><path d="M1365.5 1238C1365.5 955.506 1594.51 726.5 1877 726.5 2159.49 726.5 2388.5 955.506 2388.5 1238 2388.5 1520.49 2159.49 1749.5 1877 1749.5 1594.51 1749.5 1365.5 1520.49 1365.5 1238Z" stroke="#FF0000" stroke-width="4.58333" stroke-miterlimit="8" stroke-dasharray="18.3333 13.75" fill="none" fill-rule="evenodd"/><path d="M13.9348 18.5152 50.7775 86.5558 44.7319 89.8294 7.88917 21.7888ZM1.00314 30.7296 0 0 25.1855 17.6352ZM57.6635 77.615 58.6667 108.345 33.4811 90.7094Z" transform="matrix(1 0 0 -1 1419.5 539.844)"/><text font-family="Calibri,Calibri_MSFontService,sans-serif" font-weight="400" font-size="147" transform="matrix(1 0 0 1 1479.38 550)">ε</text></g></svg>